<?xml version="1.0" encoding="UTF-8" standalone="no"?>
<!-- Created with Inkscape (http://www.inkscape.org/) -->

<svg
   xmlns:dc="http://purl.org/dc/elements/1.1/"
   xmlns:cc="http://creativecommons.org/ns#"
   xmlns:rdf="http://www.w3.org/1999/02/22-rdf-syntax-ns#"
   xmlns:svg="http://www.w3.org/2000/svg"
   xmlns="http://www.w3.org/2000/svg"
   xmlns:sodipodi="http://sodipodi.sourceforge.net/DTD/sodipodi-0.dtd"
   xmlns:inkscape="http://www.inkscape.org/namespaces/inkscape"
   width="62px"
   height="52px"
   viewBox="0 0 210 297"
   version="1.1"
   id="svg8"
   inkscape:version="0.92.4 (5da689c313, 2019-01-14)"
   sodipodi:docname="drawing.svg">
  <defs
     id="defs2" />
  <sodipodi:namedview
     id="base"
     pagecolor="#ffffff"
     bordercolor="#666666"
     borderopacity="1.0"
     inkscape:pageopacity="0.0"
     inkscape:pageshadow="2"
     inkscape:zoom="0.35"
     inkscape:cx="0"
     inkscape:cy="0"
     inkscape:document-units="px"
     inkscape:current-layer="layer1"
     showgrid="false"
     inkscape:window-width="1920"
     inkscape:window-height="1018"
     inkscape:window-x="-8"
     inkscape:window-y="-8"
     inkscape:window-maximized="1" />
  <metadata
     id="metadata5">
    <rdf:RDF>
      <cc:Work
         rdf:about="">
        <dc:format>image/svg+xml</dc:format>
        <dc:type
           rdf:resource="http://purl.org/dc/dcmitype/StillImage" />
        <dc:title></dc:title>
      </cc:Work>
    </rdf:RDF>
  </metadata>
  <g
     inkscape:label="Layer 1"
     inkscape:groupmode="layer"
     id="layer1">
    <path
       style="fill:#000000;stroke-width:0.26458332"
       d="m 50.37782,213.12419 c -3.017664,-0.82056 -5.518049,-3.09808 -6.749551,-6.14794 L 43.01374,205.45434 V 145.79079 86.127253 l 0.614529,-1.5219 c 0.821005,-2.03326 2.346343,-3.9081 4.014786,-4.9347 2.755437,-1.69544 1.38706,-1.63369 34.428766,-1.55361 l 29.998169,0.0727 1.77926,0.84287 c 2.13413,1.01098 3.86365,2.70578 4.8862,4.78811 l 0.74287,1.51277 0.0721,21.635717 0.0721,21.63572 -0.65543,0.65542 c -0.84711,0.84711 -2.00688,0.85373 -2.97983,0.017 l -0.74236,-0.63843 -0.0739,-16.29592 -0.0739,-16.295907 -33.792719,0.0671 -33.792718,0.0671 v 42.862497 42.8625 l 33.792718,0.0671 33.792719,0.0672 0.0739,-16.25173 0.0739,-16.25173 0.64144,-0.68261 c 0.85438,-0.90925 2.33197,-0.93983 3.15357,-0.0653 l 0.57996,0.61734 -0.0708,28.42069 -0.0708,28.42068 -0.74287,1.51277 c -1.02255,2.08233 -2.75207,3.77713 -4.8862,4.78811 l -1.77926,0.84287 -30.162499,0.0521 c -25.200413,0.0435 -30.387415,-0.009 -31.529669,-0.31971 z m 61.74128,-4.74196 c 0.9497,-0.44217 1.60124,-0.98502 2.11667,-1.76356 l 0.74463,-1.12474 0.0757,-9.47865 0.0757,-9.47865 H 81.239941 47.348115 l 0.08177,9.19427 c 0.07949,8.93761 0.09832,9.22523 0.674641,10.30342 0.648478,1.21319 1.994553,2.37296 3.160238,2.72285 0.409645,0.12296 13.960747,0.23263 30.113557,0.24372 l 29.368749,0.0202 1.37203,-0.63881 z m -34.145329,-2.38811 c -2.32398,-0.95549 -3.50915,-2.10887 -4.71056,-4.58421 -1.56505,-3.22455 -0.90779,-7.23785 1.60842,-9.82114 2.25938,-2.31963 5.09346,-3.25633 8.07661,-2.66943 2.06666,0.40659 3.259374,1.0327 4.682274,2.45796 1.75809,1.76101 2.45222,3.35174 2.5636,5.87496 0.12935,2.93016 -0.56642,4.75755 -2.57692,6.76804 -2.614284,2.61428 -6.267154,3.36195 -9.643424,1.97382 z m 5.67423,-4.44868 c 2.729984,-1.83974 2.855544,-5.77126 0.2396,-7.50241 -1.35868,-0.89913 -2.65227,-1.06067 -4.09169,-0.51095 -4.66352,1.78102 -3.38754,8.61032 1.60943,8.61398 0.96718,7.9e-4 1.60305,-0.16959 2.24266,-0.60062 z M 115.07063,88.818813 c -0.0817,-2.47573 -0.16039,-2.83832 -0.83712,-3.85993 -0.52737,-0.79614 -1.15932,-1.31634 -2.1502,-1.76998 l -1.40332,-0.64246 -29.775519,0.0706 -29.775514,0.0706 -1.147192,0.8055 c -1.762257,1.23736 -2.389681,2.61278 -2.544815,5.57863 l -0.129689,2.47941 h 33.9268 33.926799 z m -43.278179,0.4297 c -0.80611,-0.15571 -1.65892,-1.30875 -1.65892,-2.24292 0,-0.46486 0.25741,-1.02751 0.64943,-1.41953 0.64699,-0.64699 0.66974,-0.64943 6.03553,-0.64943 5.04488,0 5.42257,0.034 5.96194,0.53649 1.24083,1.156 0.94367,2.93312 -0.59818,3.57735 -0.69333,0.28969 -2.01041,0.37522 -5.35949,0.34804 -2.44215,-0.0198 -4.70579,-0.0873 -5.03031,-0.15 z m 15.803584,0.0153 c -1.61452,-0.6559 -2.135804,-2.66154 -0.97514,-3.75193 0.51009,-0.4792 0.92629,-0.57528 2.4919,-0.57528 2.28315,0 2.6276,0.1188 3.12323,1.07725 0.54017,1.04457 0.48427,1.69068 -0.21679,2.50571 -0.51375,0.59727 -0.8593,0.71724 -2.31511,0.80377 -0.94117,0.0559 -1.88981,0.0291 -2.10809,-0.0595 z m 3.74938,65.192057 c -7.621464,-7.60347 -14.005284,-14.16196 -14.186284,-14.57443 -0.181,-0.41247 -0.27752,-1.01977 -0.21448,-1.34954 0.0674,-0.35244 5.91487,-6.39608 14.186184,-14.66203 12.887695,-12.87936 14.144865,-14.06244 14.943055,-14.06244 0.47933,0 1.08928,0.11655 1.35545,0.259 0.70488,0.37723 1.1081,1.716 0.78164,2.59517 -0.14657,0.39474 -5.52901,5.98622 -11.960955,12.42552 l -11.694474,11.70781 h 40.510599 c 39.9563,0 40.5197,0.007 41.17575,0.52321 0.36584,0.28777 0.72065,0.81349 0.78848,1.16828 0.18022,0.94279 -0.46077,2.24178 -1.25528,2.54385 -0.44589,0.16953 -14.95838,0.26257 -40.95508,0.26257 H 84.555551 l 11.679064,11.70782 c 6.423475,6.4393 11.817145,11.98021 11.985935,12.31312 0.63935,1.2611 -0.55516,2.96657 -2.07778,2.96657 -0.88838,0 -1.70362,-0.76164 -14.797355,-13.82448 z"
       id="path32"
       inkscape:connector-curvature="0" />
  </g>
</svg>
